<svg width="20" height="20" viewBox="0 0 20 20" fill="none" xmlns="http://www.w3.org/2000/svg">
<g clip-path="url(#clip0)">
<path d="M8.88981 4.13818H11.1182V4.51314H11.923V4.08569C11.9231 3.67085 11.5857 3.33333 11.1711 3.33333H8.83691C8.42228 3.33333 8.08496 3.67085 8.08496 4.08569V4.51314H8.88981V4.13818Z" fill="black"/>
<path d="M13.7815 7.7018H6.22654C6.01953 7.7018 5.85656 7.87839 5.87325 8.08479L6.50486 15.8949C6.54006 16.3308 6.90372 16.6666 7.34063 16.6666H12.6673C13.1042 16.6666 13.4679 16.3308 13.503 15.8947L14.1347 8.08479C14.1514 7.87839 13.9885 7.7018 13.7815 7.7018ZM8.05586 15.8336C8.04742 15.8341 8.03898 15.8344 8.03064 15.8344C7.81966 15.8344 7.64255 15.6701 7.62943 15.4567L7.23362 9.04508C7.21999 8.82322 7.38875 8.63228 7.61051 8.61865C7.83156 8.60522 8.02331 8.77357 8.03694 8.99554L8.43265 15.4072C8.44639 15.629 8.27762 15.8199 8.05586 15.8336ZM10.4109 15.432C10.4109 15.6542 10.2307 15.8343 10.0085 15.8343C9.78621 15.8343 9.60605 15.6542 9.60605 15.432V9.02026C9.60605 8.79799 9.78621 8.61783 10.0085 8.61783C10.2306 8.61783 10.4109 8.79799 10.4109 9.02026V15.432ZM12.7744 9.04396L12.3965 15.4556C12.384 15.6694 12.2066 15.8343 11.9952 15.8343C11.9872 15.8343 11.9792 15.8341 11.9712 15.8337C11.7493 15.8206 11.58 15.6302 11.5932 15.4083L11.971 8.99656C11.984 8.77469 12.1738 8.60542 12.3963 8.61855C12.6181 8.63157 12.7874 8.8221 12.7744 9.04396Z" fill="black"/>
<path d="M15.1733 6.45998L14.909 5.66774C14.8393 5.4589 14.6438 5.31801 14.4236 5.31801H5.58476C5.36463 5.31801 5.16901 5.4589 5.09943 5.66774L4.83515 6.45998C4.78419 6.61277 4.85051 6.76861 4.97431 6.84633C5.02477 6.87797 5.08448 6.89699 5.15009 6.89699H14.8583C14.924 6.89699 14.9838 6.87797 15.0341 6.84623C15.1579 6.76851 15.2242 6.61267 15.1733 6.45998Z" fill="black"/>
</g>
<defs>
<clipPath id="clip0">
<rect width="13.3333" height="13.3333" fill="white" transform="translate(3.3335 3.33333)"/>
</clipPath>
</defs>
</svg>
