<svg width="16" height="16" viewBox="0 0 16 16" fill="none" xmlns="http://www.w3.org/2000/svg">
<g clip-path="url(#clip0_36_282)">
<path d="M2.34313 13.6569C0.842843 12.1566 -1.22082e-05 10.1217 -1.21239e-05 8C-1.22082e-05 5.87827 0.842843 3.84344 2.34313 2.34315C3.84342 0.842855 5.87826 -1.4764e-07 7.99999 -6.33464e-08C10.1217 -6.33464e-08 12.1566 0.842855 13.6568 2.34315C15.1571 3.84344 16 5.87827 16 8C16 10.1217 15.1571 12.1566 13.6568 13.6569C12.1566 15.1571 10.1217 16 7.99999 16C5.87826 16 3.84342 15.1571 2.34313 13.6569ZM4.53587 7.50008C4.46949 7.49892 4.40354 7.511 4.34188 7.53561C4.28021 7.56021 4.22407 7.59685 4.17671 7.64339C4.12936 7.68992 4.09175 7.74543 4.06608 7.80665C4.0404 7.86788 4.02718 7.93361 4.02718 8C4.02718 8.06639 4.0404 8.13212 4.06608 8.19335C4.09175 8.25457 4.12936 8.31008 4.17671 8.35661C4.22407 8.40315 4.28021 8.43979 4.34188 8.46439C4.40354 8.489 4.46949 8.50108 4.53587 8.49992H10.3285L8.37122 10.4572C8.27745 10.551 8.22477 10.6781 8.22477 10.8107C8.22477 10.9434 8.27745 11.0705 8.37122 11.1643C8.46499 11.2581 8.59216 11.3107 8.72477 11.3107C8.85738 11.3107 8.98456 11.2581 9.07833 11.1643L11.8891 8.35355C11.9828 8.25979 12.0355 8.13261 12.0355 8C12.0355 7.86739 11.9828 7.74021 11.8891 7.64645L9.07833 4.8357C8.98456 4.74193 8.85738 4.68925 8.72477 4.68925C8.59216 4.68925 8.46499 4.74193 8.37122 4.8357C8.27745 4.92947 8.22477 5.05664 8.22477 5.18925C8.22477 5.32186 8.27745 5.44904 8.37122 5.5428L10.3285 7.50008H4.53587Z" fill="#373F6F"/>
</g>
<defs>
<clipPath id="clip0_36_282">
<rect width="16" height="16" fill="white"/>
</clipPath>
</defs>
</svg>
