<?xml version="1.0" encoding="utf-8"?>
<!-- Generator: Adobe Illustrator 23.0.3, SVG Export Plug-In . SVG Version: 6.00 Build 0)  -->
<svg version="1.1" id="Layer_1" xmlns="http://www.w3.org/2000/svg" xmlns:xlink="http://www.w3.org/1999/xlink" x="0px" y="0px"
	 viewBox="0 0 94.7 94.7" style="enable-background:new 0 0 94.7 94.7;" xml:space="preserve">
<style type="text/css">
	.st0{opacity:0;fill:#FFFFFF;}
	.st1{opacity:0.1;fill:#0084BF;}
	.st2{opacity:0.5;}
	.st3{fill:#CCB03B;}
	.st4{fill:#FFBBBE;}
	.st5{fill:#BBF4AE;}
	.st6{fill:#6B89F2;}
	.st7{fill:#FFFFFF;}
	.st8{opacity:0.22;}
	.st9{opacity:0.12;fill:#0084BF;}
	.st10{fill:#71BDD1;}
	.st11{fill:#FEEFAC;}
	.st12{fill:#545454;}
</style>
<rect class="st0" width="94.7" height="94.7"/>
<g>
	<path class="st1" d="M63.3,23.1c4.4,1.6,7.1,8.5,8,12.7c1,5,1,10.8,4.5,14.9c1.3,1.6,3.1,2.8,4.2,4.5c2.8,4.4-0.1,9-3.5,12
		c-1.5,1.4-3.2,2.6-5,3.7c-1.6,1-3.4,1.5-4.7,2.8c-2.8,2.7-4.5,6.5-4.9,10.4c-0.2,2-0.6,3.3-1.9,4.8c-3.5,4.3-9,3.6-13.4,1.1
		c-2.3-1.3-4.4-3.1-6.2-5c-2.1-2.3-3.1-5.2-5-7.6c-2-2.4-4.8-4-7.8-4.8c-2.8-0.7-5.6-0.4-8-2c-2-1.3-3.7-3.4-4.9-5.5
		C11,58.3,16.2,48.9,23,46.4c2.5-0.9,5.3-1,7.9-0.2c0.2,0.1,0.5,0.2,0.7,0.1c0.4-0.1,0.5-0.7,0.5-1.2c0-4.1-0.8-8.2,1.8-11.7
		c3.3-4.4,9.8-5.6,15-4.8c0,0,1.9-2.7,2.2-3c1-1,2.2-1.8,3.4-2.4C57.3,21.9,60.5,22.1,63.3,23.1z"/>
	<ellipse transform="matrix(0.6625 -0.7491 0.7491 0.6625 -51.9693 48.5674)" class="st1" cx="27.9" cy="82" rx="3.6" ry="6.1"/>
	<g class="st2">
		<path class="st3" d="M23,39c-0.5,0-1-0.2-1.3-0.5c-0.8-0.7-0.9-2-0.2-2.9c0.7-0.8,2-0.9,2.9-0.2c0.4,0.4,0.6,0.9,0.7,1.4
			c0,0.5-0.1,1.1-0.5,1.5h0C24.1,38.7,23.5,39,23,39z M23,35.8c-0.3,0-0.6,0.1-0.9,0.4c-0.4,0.5-0.4,1.2,0.1,1.6
			c0.5,0.4,1.2,0.4,1.6-0.1c0.2-0.2,0.3-0.5,0.3-0.8c0-0.3-0.2-0.6-0.4-0.8C23.5,35.9,23.2,35.8,23,35.8z"/>
	</g>
	<circle class="st4" cx="24.7" cy="23.4" r="1.2"/>
	<circle class="st5" cx="40.3" cy="22.9" r="1.2"/>
	<g class="st2">
		<g>
			
				<rect x="30.4" y="25.3" transform="matrix(0.759 -0.6511 0.6511 0.759 -10.0799 26.5465)" class="st6" width="0.9" height="3.3"/>
		</g>
		<g>
			
				<rect x="29.2" y="26.4" transform="matrix(0.7562 -0.6544 0.6544 0.7562 -10.081 26.7234)" class="st6" width="3.3" height="0.9"/>
		</g>
	</g>
	<path class="st7" d="M63.4,75.4c0,0,4,4.9,7.7,0"/>
	<g>
		<g>
			<path class="st7" d="M63.4,75.4c0,0,3.6,5,7.5,0.2c0,0,2.3-3.5-0.7-6.2L59.7,55.8l-1.8,1.4L55,53.6l-3.7,2.2l2.8,4l-1.5,1.3"/>
		</g>
		<g>
			<path class="st7" d="M43.9,58c-8.6,0-15.5-7-15.5-15.5c0-8.6,7-15.5,15.5-15.5s15.5,7,15.5,15.5C59.4,51,52.5,58,43.9,58z
				 M43.9,30.2c-6.8,0-12.3,5.5-12.3,12.3s5.5,12.3,12.3,12.3s12.3-5.5,12.3-12.3S50.7,30.2,43.9,30.2z"/>
		</g>
	</g>
	<g class="st8">
		<g>
			<circle class="st7" cx="44.1" cy="42.3" r="12.5"/>
		</g>
	</g>
	<path class="st9" d="M46.7,30.5c-0.9-0.2-1.9-0.3-2.8-0.3c-6.7,0-12.2,5.5-12.2,12.2c0,2.6,0.8,5,2.2,7c-0.3-1.2-0.5-2.4-0.5-3.7
		C33.4,38,39.2,31.5,46.7,30.5z"/>
	<g>
		<path class="st10" d="M43.9,55.2c-7,0-12.7-5.7-12.7-12.7c0-7,5.7-12.7,12.7-12.7s12.7,5.7,12.7,12.7
			C56.6,49.5,50.9,55.2,43.9,55.2z M43.9,30.4c-6.7,0-12.1,5.4-12.1,12.1c0,6.7,5.4,12.1,12.1,12.1S56,49.2,56,42.5
			C56,35.8,50.6,30.4,43.9,30.4z"/>
	</g>
	<polygon class="st11" points="61.6,58.2 54.6,63.8 52.6,61.3 59.7,55.8 	"/>
	<g>
		<path class="st10" d="M43.9,58.8c-9,0-16.3-7.3-16.3-16.3c0-9,7.3-16.3,16.3-16.3s16.3,7.3,16.3,16.3
			C60.2,51.5,52.9,58.8,43.9,58.8z M43.9,26.8c-8.7,0-15.7,7-15.7,15.7c0,8.7,7,15.7,15.7,15.7s15.7-7,15.7-15.7
			C59.6,33.8,52.6,26.8,43.9,26.8z"/>
	</g>
	<g>
		<path class="st10" d="M63.8,76.3L52.2,61.2l7.6-5.9l11.6,15.1L63.8,76.3z M53,61.3l10.9,14.2l6.7-5.1L59.7,56.2L53,61.3z"/>
	</g>
	<g>
		<rect x="53.6" y="60.7" transform="matrix(0.7844 -0.6203 0.6203 0.7844 -25.3312 49.199)" class="st10" width="9" height="0.6"/>
	</g>
	<g>
		
			<rect x="60.5" y="62.9" transform="matrix(0.7906 -0.6124 0.6124 0.7906 -29.1347 51.5357)" class="st10" width="0.6" height="10.9"/>
	</g>
	<g>
		
			<rect x="62.3" y="61.5" transform="matrix(0.7906 -0.6124 0.6124 0.7906 -27.8719 52.3672)" class="st10" width="0.6" height="10.9"/>
	</g>
	<g>
		
			<rect x="64" y="60.2" transform="matrix(0.7906 -0.6124 0.6124 0.7906 -26.7383 53.1118)" class="st10" width="0.6" height="10.9"/>
	</g>
	<g>
		
			<rect x="56.3" y="53.2" transform="matrix(0.7925 -0.6098 0.6098 0.7925 -21.9755 46.0142)" class="st10" width="0.6" height="4.2"/>
	</g>
	<g>
		
			<rect x="52.8" y="56.2" transform="matrix(0.7925 -0.6098 0.6098 0.7925 -24.5012 44.4722)" class="st10" width="0.6" height="4.2"/>
	</g>
	<g>
		<path class="st10" d="M67.2,77.9c-1.3,0-2.6-0.6-3.6-1.8l-0.2-0.2L71,70l0.2,0.3c0.6,0.9,0.9,1.8,0.9,2.7
			C72.2,75.7,69.9,77.9,67.2,77.9z M64.2,75.9c0.9,0.9,1.9,1.4,3,1.4c2.4,0,4.3-1.9,4.3-4.3c0-0.7-0.2-1.4-0.7-2.1L64.2,75.9z"/>
	</g>
	<circle class="st10" cx="48.6" cy="40.6" r="0.9"/>
	<circle class="st10" cx="39.2" cy="40.6" r="0.9"/>
	<path class="st10" d="M41.3,46.3h0.6c0.2-1.3,1.1-2.3,2.2-2.3s2,1,2.2,2.3l0,0l0.6,0l0,0l0,0c-0.1-1.8-1.3-2.9-2.8-2.9
		S41.4,44.5,41.3,46.3"/>
</g>
<g>
	<path class="st12" d="M19.6,11.8h-0.8l-2.9-4.5v4.5h-0.8V6h0.8l3,4.5V6h0.8V11.8z"/>
	<path class="st12" d="M20.7,9.6c0-0.4,0.1-0.8,0.3-1.1c0.2-0.3,0.4-0.6,0.7-0.8c0.3-0.2,0.6-0.3,1-0.3c0.6,0,1.1,0.2,1.4,0.6
		c0.4,0.4,0.5,1,0.5,1.6v0.1c0,0.4-0.1,0.8-0.2,1.1c-0.2,0.3-0.4,0.6-0.7,0.8c-0.3,0.2-0.6,0.3-1,0.3c-0.6,0-1.1-0.2-1.4-0.6
		C20.9,10.9,20.7,10.4,20.7,9.6L20.7,9.6z M21.4,9.7c0,0.5,0.1,0.9,0.3,1.2c0.2,0.3,0.5,0.4,0.9,0.4c0.4,0,0.7-0.1,0.9-0.4
		c0.2-0.3,0.3-0.7,0.3-1.2c0-0.5-0.1-0.9-0.3-1.2C23.3,8.2,23,8,22.7,8c-0.4,0-0.7,0.1-0.9,0.4C21.5,8.8,21.4,9.2,21.4,9.7z"/>
	<path class="st12" d="M29.7,8.2c-0.1,0-0.2,0-0.4,0c-0.5,0-0.8,0.2-1,0.6v3.1h-0.7V7.5h0.7l0,0.5c0.2-0.4,0.6-0.6,1-0.6
		c0.1,0,0.3,0,0.3,0.1V8.2z"/>
	<path class="st12" d="M32.1,11.9c-0.6,0-1.1-0.2-1.4-0.6c-0.4-0.4-0.6-0.9-0.6-1.6V9.7c0-0.4,0.1-0.8,0.2-1.2
		c0.2-0.3,0.4-0.6,0.7-0.8c0.3-0.2,0.6-0.3,1-0.3c0.6,0,1,0.2,1.3,0.6c0.3,0.4,0.5,0.9,0.5,1.6v0.3h-2.9c0,0.4,0.1,0.8,0.4,1
		c0.2,0.3,0.5,0.4,0.9,0.4c0.3,0,0.5-0.1,0.7-0.2c0.2-0.1,0.3-0.2,0.5-0.4l0.5,0.4C33.4,11.6,32.9,11.9,32.1,11.9z M32,8
		c-0.3,0-0.6,0.1-0.8,0.3c-0.2,0.2-0.3,0.5-0.4,0.9h2.2V9.2c0-0.4-0.1-0.7-0.3-0.9C32.6,8.1,32.3,8,32,8z"/>
	<path class="st12" d="M36.4,11.3c0.3,0,0.5-0.1,0.7-0.2s0.3-0.4,0.3-0.6h0.7c0,0.2-0.1,0.5-0.3,0.7c-0.2,0.2-0.4,0.4-0.6,0.5
		c-0.3,0.1-0.5,0.2-0.8,0.2c-0.6,0-1.1-0.2-1.4-0.6c-0.3-0.4-0.5-0.9-0.5-1.6V9.6c0-0.4,0.1-0.8,0.2-1.1c0.2-0.3,0.4-0.6,0.7-0.8
		c0.3-0.2,0.6-0.3,1-0.3c0.5,0,0.9,0.1,1.2,0.4C38,8.1,38.1,8.5,38.2,9h-0.7c0-0.3-0.1-0.5-0.3-0.7C36.9,8.1,36.7,8,36.4,8
		c-0.4,0-0.7,0.1-0.9,0.4c-0.2,0.3-0.3,0.7-0.3,1.2v0.1c0,0.5,0.1,0.9,0.3,1.2C35.8,11.2,36,11.3,36.4,11.3z"/>
	<path class="st12" d="M38.8,9.6c0-0.4,0.1-0.8,0.3-1.1c0.2-0.3,0.4-0.6,0.7-0.8s0.6-0.3,1-0.3c0.6,0,1.1,0.2,1.4,0.6
		c0.4,0.4,0.5,1,0.5,1.6v0.1c0,0.4-0.1,0.8-0.2,1.1c-0.2,0.3-0.4,0.6-0.7,0.8c-0.3,0.2-0.6,0.3-1,0.3c-0.6,0-1.1-0.2-1.4-0.6
		C39,10.9,38.8,10.4,38.8,9.6L38.8,9.6z M39.5,9.7c0,0.5,0.1,0.9,0.3,1.2c0.2,0.3,0.5,0.4,0.9,0.4c0.4,0,0.7-0.1,0.9-0.4
		c0.2-0.3,0.3-0.7,0.3-1.2c0-0.5-0.1-0.9-0.3-1.2C41.4,8.2,41.1,8,40.8,8c-0.4,0-0.7,0.1-0.9,0.4C39.7,8.8,39.5,9.2,39.5,9.7z"/>
	<path class="st12" d="M45.8,8.2c-0.1,0-0.2,0-0.4,0c-0.5,0-0.8,0.2-1,0.6v3.1h-0.7V7.5h0.7l0,0.5c0.2-0.4,0.6-0.6,1-0.6
		c0.1,0,0.3,0,0.3,0.1V8.2z"/>
	<path class="st12" d="M46.2,9.6c0-0.7,0.2-1.2,0.5-1.6s0.7-0.6,1.2-0.6c0.5,0,0.9,0.2,1.2,0.5V5.7h0.7v6.2h-0.7l0-0.5
		c-0.3,0.4-0.7,0.5-1.2,0.5c-0.5,0-0.9-0.2-1.2-0.6C46.4,10.9,46.2,10.4,46.2,9.6L46.2,9.6z M47,9.7c0,0.5,0.1,0.9,0.3,1.2
		c0.2,0.3,0.5,0.4,0.8,0.4c0.5,0,0.8-0.2,1-0.6v-2c-0.2-0.4-0.6-0.6-1-0.6c-0.4,0-0.6,0.1-0.9,0.4S47,9.2,47,9.7z"/>
	<path class="st12" d="M53.6,10.7c0-0.2-0.1-0.4-0.2-0.5c-0.2-0.1-0.4-0.2-0.8-0.3c-0.4-0.1-0.7-0.2-0.9-0.3
		c-0.2-0.1-0.4-0.2-0.5-0.4C51.1,9.1,51,8.9,51,8.7c0-0.4,0.2-0.7,0.5-0.9c0.3-0.2,0.7-0.4,1.2-0.4c0.5,0,0.9,0.1,1.2,0.4
		c0.3,0.3,0.5,0.6,0.5,1h-0.7c0-0.2-0.1-0.4-0.3-0.5C53.1,8.1,52.9,8,52.6,8c-0.3,0-0.5,0.1-0.6,0.2c-0.2,0.1-0.2,0.3-0.2,0.5
		c0,0.2,0.1,0.3,0.2,0.4c0.1,0.1,0.4,0.2,0.8,0.3c0.4,0.1,0.7,0.2,0.9,0.3c0.2,0.1,0.4,0.3,0.5,0.4c0.1,0.2,0.2,0.4,0.2,0.6
		c0,0.4-0.2,0.7-0.5,0.9c-0.3,0.2-0.7,0.4-1.2,0.4c-0.3,0-0.7-0.1-0.9-0.2c-0.3-0.1-0.5-0.3-0.6-0.5c-0.2-0.2-0.2-0.5-0.2-0.7h0.7
		c0,0.2,0.1,0.4,0.3,0.6c0.2,0.1,0.4,0.2,0.7,0.2c0.3,0,0.5-0.1,0.7-0.2C53.5,11,53.6,10.9,53.6,10.7z"/>
	<path class="st12" d="M57.7,11.8V8.1H57V7.5h0.7V7c0-0.5,0.1-0.8,0.4-1.1c0.2-0.3,0.6-0.4,1.1-0.4c0.2,0,0.3,0,0.5,0.1l0,0.6
		c-0.1,0-0.3,0-0.4,0c-0.2,0-0.4,0.1-0.6,0.2c-0.1,0.1-0.2,0.3-0.2,0.6v0.5h0.9v0.6h-0.9v3.8H57.7z"/>
	<path class="st12" d="M60,9.6c0-0.4,0.1-0.8,0.3-1.1c0.2-0.3,0.4-0.6,0.7-0.8s0.6-0.3,1-0.3c0.6,0,1.1,0.2,1.4,0.6
		C63.8,8.4,64,9,64,9.7v0.1c0,0.4-0.1,0.8-0.2,1.1c-0.2,0.3-0.4,0.6-0.7,0.8c-0.3,0.2-0.6,0.3-1,0.3c-0.6,0-1.1-0.2-1.4-0.6
		C60.2,10.9,60,10.4,60,9.6L60,9.6z M60.7,9.7c0,0.5,0.1,0.9,0.3,1.2c0.2,0.3,0.5,0.4,0.9,0.4c0.4,0,0.7-0.1,0.9-0.4
		c0.2-0.3,0.3-0.7,0.3-1.2c0-0.5-0.1-0.9-0.3-1.2C62.6,8.2,62.3,8,62,8c-0.4,0-0.7,0.1-0.9,0.4C60.9,8.8,60.7,9.2,60.7,9.7z"/>
	<path class="st12" d="M67.6,11.4c-0.3,0.3-0.7,0.5-1.3,0.5c-0.5,0-0.8-0.1-1.1-0.4c-0.2-0.3-0.4-0.7-0.4-1.2V7.5h0.7v2.8
		c0,0.7,0.3,1,0.8,1c0.6,0,0.9-0.2,1.1-0.6V7.5h0.7v4.4h-0.7L67.6,11.4z"/>
	<path class="st12" d="M70.1,7.5l0,0.5c0.3-0.4,0.8-0.6,1.3-0.6c0.9,0,1.4,0.5,1.4,1.6v2.9h-0.7V9c0-0.3-0.1-0.5-0.2-0.7
		C71.7,8.1,71.5,8,71.2,8c-0.2,0-0.5,0.1-0.6,0.2c-0.2,0.1-0.3,0.3-0.4,0.5v3.1h-0.7V7.5H70.1z"/>
	<path class="st12" d="M73.8,9.6c0-0.7,0.2-1.2,0.5-1.6s0.7-0.6,1.2-0.6c0.5,0,0.9,0.2,1.2,0.5V5.7h0.7v6.2h-0.7l0-0.5
		c-0.3,0.4-0.7,0.5-1.2,0.5c-0.5,0-0.9-0.2-1.2-0.6C73.9,10.9,73.8,10.4,73.8,9.6L73.8,9.6z M74.5,9.7c0,0.5,0.1,0.9,0.3,1.2
		c0.2,0.3,0.5,0.4,0.8,0.4c0.5,0,0.8-0.2,1-0.6v-2c-0.2-0.4-0.6-0.6-1-0.6c-0.4,0-0.6,0.1-0.9,0.4S74.5,9.2,74.5,9.7z"/>
	<path class="st12" d="M78.6,11.5c0-0.1,0-0.2,0.1-0.3c0.1-0.1,0.2-0.1,0.3-0.1s0.3,0,0.3,0.1c0.1,0.1,0.1,0.2,0.1,0.3
		c0,0.1,0,0.2-0.1,0.3c-0.1,0.1-0.2,0.1-0.3,0.1s-0.3,0-0.3-0.1C78.7,11.7,78.6,11.6,78.6,11.5z"/>
</g>
</svg>
