<svg width="20" height="20" viewBox="0 0 20 20" fill="none" xmlns="http://www.w3.org/2000/svg">
<g clip-path="url(#clip0_91_4404)">
<path d="M13 5C13 4.73478 13.1054 4.48043 13.2929 4.29289C13.4804 4.10536 13.7348 4 14 4H16C16.2652 4 16.5196 4.10536 16.7071 4.29289C16.8946 4.48043 17 4.73478 17 5V17H17.5C17.6326 17 17.7598 17.0527 17.8536 17.1464C17.9473 17.2402 18 17.3674 18 17.5C18 17.6326 17.9473 17.7598 17.8536 17.8536C17.7598 17.9473 17.6326 18 17.5 18H2.5C2.36739 18 2.24021 17.9473 2.14645 17.8536C2.05268 17.7598 2 17.6326 2 17.5C2 17.3674 2.05268 17.2402 2.14645 17.1464C2.24021 17.0527 2.36739 17 2.5 17H3V14C3 13.7348 3.10536 13.4804 3.29289 13.2929C3.48043 13.1054 3.73478 13 4 13H6C6.26522 13 6.51957 13.1054 6.70711 13.2929C6.89464 13.4804 7 13.7348 7 14V17H8V10C8 9.73478 8.10536 9.48043 8.29289 9.29289C8.48043 9.10536 8.73478 9 9 9H11C11.2652 9 11.5196 9.10536 11.7071 9.29289C11.8946 9.48043 12 9.73478 12 10V17H13V5Z" fill="white"/>
</g>
<defs>
<clipPath id="clip0_91_4404">
<rect width="20" height="20" fill="white"/>
</clipPath>
</defs>
</svg>
