<svg width="17" height="17" viewBox="0 0 17 17" fill="none" xmlns="http://www.w3.org/2000/svg">
<path d="M10.0583 2.46233C11.8833 3.029 13.3333 4.479 13.9 6.304C14.0583 6.829 14.5333 7.19566 15.075 7.19566H15.1083C15.9417 7.19566 16.5417 6.39567 16.3 5.604C15.4917 2.954 13.4 0.862332 10.75 0.0539988C9.96667 -0.187668 9.16667 0.412332 9.16667 1.24567V1.279C9.16667 1.829 9.53333 2.304 10.0583 2.46233ZM13.9 9.754C13.6185 10.6575 13.1218 11.4791 12.4526 12.1483C11.7835 12.8175 10.9618 13.3142 10.0583 13.5957C9.53333 13.754 9.16667 14.229 9.16667 14.7707V14.804C9.16667 15.6373 9.96667 16.2373 10.7583 15.9957C13.4083 15.1873 15.5 13.0957 16.3083 10.4457C16.55 9.654 15.95 8.854 15.125 8.854H15.0833C14.5333 8.86233 14.0583 9.229 13.9 9.754ZM7.5 14.7873C7.5 14.229 7.125 13.754 6.59167 13.5873C4.225 12.8457 2.5 10.6373 2.5 8.029C2.5 5.42066 4.225 3.21233 6.59167 2.47067C7.125 2.304 7.5 1.829 7.5 1.27067V1.26233C7.5 0.428999 6.69167 -0.187668 5.89167 0.0623321C2.48333 1.104 0 4.279 0 8.029C0 11.779 2.48333 14.954 5.89167 15.9957C6.69167 16.2457 7.5 15.629 7.5 14.7873Z" fill="#A8ACCE"/>
</svg>
