<svg width="20" height="20" viewBox="0 0 20 20" fill="none" xmlns="http://www.w3.org/2000/svg">
<path d="M11.3325 18C11.2469 17.9999 11.162 17.984 11.0808 17.9527L8.40917 16.9269C8.25029 16.8653 8.11228 16.7475 8.01474 16.5902C7.9172 16.4329 7.8651 16.2442 7.86584 16.0508V11.4658C7.86511 11.4639 7.86284 11.4608 7.86284 11.4608L2.24121 3.90538C2.11655 3.73782 2.03619 3.53251 2.00966 3.31381C1.98312 3.09512 2.01154 2.87224 2.09152 2.67162C2.1715 2.471 2.2997 2.30108 2.46089 2.18203C2.62208 2.06299 2.80949 1.99981 3.00087 2H16.9991C17.1905 1.99981 17.3779 2.06299 17.5391 2.18203C17.7003 2.30108 17.8285 2.471 17.9085 2.67162C17.9885 2.87224 18.0169 3.09512 17.9903 3.31381C17.9638 3.53251 17.8834 3.73782 17.7588 3.90538L12.1355 11.4615L12.1325 11.4665V17.0769C12.1328 17.1982 12.1123 17.3184 12.0722 17.4306C12.0321 17.5427 11.9732 17.6446 11.8989 17.7304C11.8245 17.8162 11.7362 17.8842 11.639 17.9305C11.5418 17.9767 11.4376 18.0004 11.3325 18Z" fill="#393F70"/>
</svg>
