<svg width="20" height="20" viewBox="0 0 20 20" fill="none" xmlns="http://www.w3.org/2000/svg">
<path d="M8.127 11.5996C7.438 12.7966 7.902 13.7796 8.859 14.3316C9.815 14.8846 10.9 14.7966 11.591 13.5996C12.28 12.4046 16.638 1.7346 16.259 1.5156C15.88 1.2966 8.817 10.4036 8.127 11.5996ZM10 3.9996C10.438 3.9996 10.864 4.0366 11.281 4.1086C11.719 3.5596 12.209 2.9546 12.686 2.3806C11.813 2.12794 10.9088 1.99968 10 1.9996C4.393 1.9996 0 6.7286 0 12.7656C0 13.1366 0.016 13.5076 0.049 13.8686C0.098 14.4196 0.589 14.8236 1.133 14.7766C1.684 14.7256 2.09 14.2416 2.041 13.6906C2.01369 13.383 2.00001 13.0744 2 12.7656C2 7.8496 5.514 3.9996 10 3.9996ZM17.219 5.2496C16.94 5.9996 16.645 6.7636 16.385 7.4236C17.4 8.8936 18 10.7376 18 12.7656C18 13.0816 17.985 13.4006 17.957 13.7086C17.9441 13.9666 18.0315 14.2196 18.2008 14.4147C18.3702 14.6098 18.6084 14.7318 18.8657 14.7553C19.1229 14.7788 19.3793 14.702 19.5812 14.5408C19.7831 14.3797 19.9149 14.1467 19.949 13.8906C19.982 13.5206 20 13.1426 20 12.7656C20 9.8116 18.947 7.1756 17.219 5.2496Z" fill="#393F70"/>
</svg>
