<svg width="20" height="20" viewBox="0 0 20 20" fill="none" xmlns="http://www.w3.org/2000/svg">
<g clip-path="url(#clip0_97_5690)">
<path d="M11.0279 1.58289C11.0279 1.26561 11.2291 1 11.5557 1C15.6361 1 18.9446 4.52617 18.9446 8.875C18.9446 9.19141 18.6939 9.4375 18.397 9.4375H11.0279V1.58289ZM2.05566 10.5625C2.05566 6.29805 5.02772 2.76977 8.85411 2.2041C9.18727 2.1598 9.44456 2.41891 9.44456 2.7441V11.125L14.6069 16.627C14.8279 16.8625 14.8114 17.2492 14.5574 17.4426C13.2644 18.4234 11.681 19 9.97234 19C5.60168 19 2.05566 15.2242 2.05566 10.5625ZM19.4196 11.125C19.7231 11.125 19.9672 11.3992 19.9276 11.7227C19.6736 13.6879 18.7829 15.4352 17.4899 16.7254C17.292 16.8941 16.9819 16.9082 16.7906 16.7043L11.5557 11.125H19.4196Z" fill="#A8ACCE"/>
</g>
<defs>
<clipPath id="clip0_97_5690">
<rect width="20" height="20" fill="white"/>
</clipPath>
</defs>
</svg>
