<svg width="20" height="20" viewBox="0 0 20 20" fill="none" xmlns="http://www.w3.org/2000/svg">
<path d="M10.0279 0.582891C10.0279 0.265605 10.2291 0 10.5557 0C14.6361 0 17.9446 3.52617 17.9446 7.875C17.9446 8.19141 17.6939 8.4375 17.397 8.4375H10.0279V0.582891ZM1.05566 9.5625C1.05566 5.29805 4.02772 1.76977 7.85411 1.2041C8.18727 1.1598 8.44456 1.41891 8.44456 1.7441V10.125L13.6069 15.627C13.8279 15.8625 13.8114 16.2492 13.5574 16.4426C12.2644 17.4234 10.681 18 8.97234 18C4.60168 18 1.05566 14.2242 1.05566 9.5625ZM18.4196 10.125C18.7231 10.125 18.9672 10.3992 18.9276 10.7227C18.6736 12.6879 17.7829 14.4352 16.4899 15.7254C16.292 15.8941 15.9819 15.9082 15.7906 15.7043L10.5557 10.125H18.4196Z" fill="white"/>
</svg>


