<svg xmlns="http://www.w3.org/2000/svg" version="1.1" xmlns:xlink="http://www.w3.org/1999/xlink" xmlns:svgjs="http://svgjs.com/svgjs" width="1440" height="560" preserveAspectRatio="none" viewBox="0 0 1440 560">
    <g mask="url(&quot;#SvgjsMask1000&quot;)" fill="none">
        <rect width="1440" height="560" x="0" y="0" fill="#0e2a47"></rect>
        <path d="M0,538.644C103.318,543.229,201.322,504.063,292.105,454.524C388.364,401.997,490.204,344.405,537.371,245.409C584.791,145.882,571.01,28.875,546.072,-78.513C522.578,-179.683,463.909,-264.723,399.912,-346.526C332.836,-432.264,266.185,-522.54,165.783,-564.607C59.533,-609.124,-64.632,-627.627,-172.125,-586.203C-277.098,-545.75,-347.647,-446.168,-399.976,-346.581C-445.267,-260.387,-433.364,-160.675,-446.424,-64.186C-459.352,31.329,-507.809,126.432,-476.331,217.533C-443.933,311.299,-358.164,373.863,-275.905,429.317C-192.183,485.757,-100.871,534.168,0,538.644" fill="#0b2239"></path>
        <path d="M1440 982.0360000000001C1517.74 972.0640000000001 1576.381 914.588 1649.118 885.394 1743.891 847.356 1874.726 869.27 1931.857 784.624 1987.6979999999999 701.888 1928.674 590.582 1914.814 491.73199999999997 1900.899 392.496 1917.612 278.713 1850.488 204.31 1783.521 130.082 1671.493 117.62200000000001 1571.713 111.428 1485.798 106.09500000000003 1403.886 135.09699999999998 1326 171.752 1257.4180000000001 204.029 1205.706 257.135 1150.885 309.48 1090.068 367.549 1020.646 417.656 987.517 494.943 948.24 586.574 905.446 694.525 946.989 785.1510000000001 988.5319999999999 875.7760000000001 1100.722 906.893 1193.305 943.866 1272.1779999999999 975.364 1355.76 992.842 1440 982.0360000000001" fill="#113255"></path>
    </g>
    <defs>
        <mask id="SvgjsMask1000">
            <rect width="1440" height="560" fill="#ffffff"></rect>
        </mask>
    </defs>
</svg>