<svg version="1.0" xmlns="http://www.w3.org/2000/svg"
 width="512.000000pt" height="512.000000pt" viewBox="0 0 512.000000 512.000000"
 preserveAspectRatio="xMidYMid meet">

<g transform="translate(0.000000,512.000000) scale(0.100000,-0.100000)"
fill="#000000" stroke="none">
<path d="M2425 5106 c-139 -32 -250 -92 -343 -184 -214 -215 -262 -526 -125
-802 50 -100 177 -229 279 -283 200 -105 448 -105 648 0 102 54 229 183 279
283 100 201 103 424 8 615 -115 232 -329 371 -586 381 -64 2 -122 -1 -160 -10z
m288 -181 c26 -9 74 -31 106 -50 285 -167 336 -557 104 -793 -104 -104 -217
-152 -363 -152 -146 0 -259 48 -363 152 -124 127 -176 313 -132 481 47 181
203 333 385 374 68 16 200 10 263 -12z"/>
<path d="M2392 3220 c-301 -79 -512 -351 -512 -660 0 -374 306 -680 680 -680
440 0 769 420 660 844 -93 365 -469 590 -828 496z m293 -165 c224 -59 385
-266 385 -495 0 -278 -232 -510 -510 -510 -278 0 -510 232 -510 510 0 227 160
435 381 494 72 19 181 20 254 1z"/>
<path d="M2485 1358 c-161 -17 -290 -80 -410 -202 -58 -58 -91 -102 -118 -156
-100 -200 -103 -424 -8 -615 85 -172 224 -292 406 -352 69 -23 97 -27 205 -27
108 0 136 4 205 27 406 134 590 581 398 967 -53 106 -178 230 -290 287 -120
61 -254 86 -388 71z m215 -184 c130 -39 253 -141 314 -262 141 -281 4 -608
-301 -718 -66 -24 -240 -24 -306 0 -203 73 -340 246 -354 448 -17 239 128 453
357 529 71 23 216 25 290 3z"/>
</g>
</svg>