<svg width="66" height="66" viewBox="0 0 66 66" fill="none" xmlns="http://www.w3.org/2000/svg">
<path d="M17.659 31.4655C22.5843 33.1967 27.7802 34.0301 32.9999 33.9261C38.2196 34.0294 43.4156 33.1953 48.3407 31.4634C52.1852 29.964 53.5485 28.2975 53.5485 27.3384V20.0062C52.2044 20.9064 50.7625 21.6509 49.2503 22.2255C44.0393 24.0914 38.5341 25.0012 32.9999 24.9109C27.466 24.9995 21.9615 24.0912 16.7494 22.2296C15.2365 21.655 13.7944 20.909 12.4512 20.0062V27.3281C12.4512 28.3057 13.8186 29.964 17.659 31.4655ZM17.659 45.2946C19.3989 45.9581 21.1932 46.4695 23.0215 46.8229C26.3092 47.4589 29.6512 47.7718 32.9999 47.7572C36.3484 47.7725 39.6905 47.4603 42.9782 46.8249C44.8066 46.4715 46.6008 45.9601 48.3407 45.2966C52.1852 43.7972 53.5485 42.1307 53.5485 41.1716V34.1798C52.4375 34.8483 51.2697 35.4177 50.0588 35.8813C44.5845 37.8196 38.8062 38.7578 32.9999 38.6513C27.1929 38.7545 21.4146 37.8128 15.9409 35.871C14.7305 35.4062 13.5628 34.8368 12.4512 34.1694V41.1675C12.4512 42.1286 13.8186 43.7889 17.659 45.2946ZM32.9999 61.875C44.3436 61.875 53.5485 58.278 53.5485 53.8436V47.9923C52.5378 48.6016 51.479 49.1272 50.3826 49.5639L50.0588 49.6939C44.5855 51.6379 38.8072 52.5817 32.9999 52.4803C27.1923 52.5846 21.4135 51.6407 15.9409 49.6939C15.8295 49.6526 15.7223 49.6052 15.6171 49.5639C14.5207 49.1272 13.4619 48.6016 12.4512 47.9923V53.8436C12.4512 58.278 21.6561 61.875 32.9999 61.875Z" fill="white"/>
<path d="M32.9999 20.1877C44.3486 20.1877 53.5485 16.592 53.5485 12.1564C53.5485 7.72077 44.3486 4.125 32.9999 4.125C21.6511 4.125 12.4512 7.72077 12.4512 12.1564C12.4512 16.592 21.6511 20.1877 32.9999 20.1877Z" fill="white"/>
</svg>
