<svg width="68" height="68" viewBox="0 0 68 68" fill="none" xmlns="http://www.w3.org/2000/svg">
<path d="M46.4842 16.082C46.1527 16.082 45.9317 16.1266 45.7086 16.1819V16.2159H45.7426C45.8977 16.5028 46.1527 16.7259 46.3503 16.9915C46.5055 17.2911 46.6372 17.5993 46.7817 17.8989L46.8263 17.8543C47.0919 17.6651 47.2258 17.3676 47.2258 16.9129C47.1153 16.779 47.0919 16.6366 46.9942 16.5134C46.8837 16.3243 46.6393 16.2265 46.4842 16.082ZM16.3475 53.4671H13.7252C13.6458 49.2933 13.3913 45.1246 12.9623 40.9721H12.9411L8.94608 53.4671H6.9422L2.97908 40.9721H2.94508C2.63709 45.1307 2.45285 49.2976 2.39258 53.4671H0.00195312C0.1314 48.2272 0.51933 42.9969 1.16433 37.7953H4.4177L8.20233 49.3064H8.22358L12.0422 37.7953H15.1405C15.8268 43.5073 16.237 48.7305 16.3581 53.4671H16.3475ZM27.7247 41.9029C26.6622 47.702 25.2448 51.9201 23.5087 54.5424C22.136 56.5675 20.6421 57.5854 19.0143 57.5854C18.583 57.5854 18.0517 57.4515 17.41 57.1859V55.7919C17.7308 55.8365 18.0963 55.8684 18.5064 55.8684C19.2693 55.8684 19.8792 55.6474 20.3446 55.2373C20.8971 54.7273 21.1754 54.1535 21.1754 53.5224C21.1754 53.0804 20.9651 52.1943 20.5231 50.8449L17.6565 41.9029H20.2362L22.2953 48.5881C22.7607 50.116 22.9604 51.1679 22.8712 51.7756C24.0102 48.7645 24.7964 45.4665 25.2406 41.9029H27.7247ZM62.6533 53.4671H55.1946V37.7953H57.7063V51.5419H62.6533V53.4671ZM53.2459 53.8454L50.3687 52.428C50.6237 52.2176 50.8659 51.986 51.0891 51.7204C52.3173 50.2924 52.9272 48.1568 52.9272 45.3454C52.9272 40.154 50.8914 37.5658 46.8178 37.5658C44.8246 37.5658 43.2648 38.2181 42.1471 39.5356C40.9294 40.9743 40.3089 43.0993 40.3089 45.9C40.3089 48.6561 40.8508 50.6706 41.9367 51.9648C42.9333 53.1165 44.4272 53.703 46.4311 53.703C47.1727 53.703 47.8591 53.6138 48.4796 53.4268L52.2323 55.6176L53.2608 53.8475L53.2459 53.8454ZM43.9172 50.3243C43.2754 49.3064 42.9652 47.668 42.9652 45.4091C42.9652 41.4588 44.1616 39.4889 46.5628 39.4889C47.8144 39.4889 48.7431 39.9649 49.3296 40.9063C49.9607 41.9348 50.2816 43.5519 50.2816 45.7874C50.2816 49.7611 49.0746 51.765 46.6839 51.765C45.4217 51.765 44.5037 51.289 43.9066 50.3476L43.9172 50.3243ZM39.2231 49.13C39.2231 50.4581 38.7365 51.5546 37.7505 52.394C36.7772 53.2461 35.4809 53.6775 33.8319 53.6775C32.2934 53.6775 30.8208 53.1909 29.3716 52.2155L30.0473 50.8661C31.2862 51.4866 32.4039 51.7969 33.424 51.7969C34.3653 51.7969 35.1069 51.5865 35.6382 51.1764C36.1694 50.7556 36.4903 50.1691 36.4903 49.4275C36.4903 48.4968 35.8379 47.6999 34.6522 47.0369C33.5557 46.4291 31.3542 45.1775 31.3542 45.1775C30.1578 44.3041 29.5713 43.3734 29.5713 41.8349C29.5713 40.562 30.0133 39.5441 30.8995 38.7685C31.7962 37.9716 32.9352 37.5849 34.3526 37.5849C35.7627 37.5726 37.1451 37.977 38.3263 38.7473L37.7186 40.0966C36.7691 39.6785 35.7449 39.4566 34.7075 39.4443C33.9 39.4443 33.2794 39.644 32.8481 40.0308C32.4167 40.4175 32.1511 40.9041 32.1511 41.514C32.1511 42.4448 32.8162 43.2416 34.0317 43.9259C35.1494 44.5336 37.3956 45.8193 37.3956 45.8193C38.6238 46.682 39.2337 47.6128 39.2337 49.1279L39.2231 49.13ZM65.7983 32.5401C64.2811 32.5061 63.1081 32.6613 62.1242 33.082C61.8479 33.1925 61.3932 33.1925 61.3486 33.5474C61.5037 33.7025 61.5249 33.9469 61.6588 34.1551C61.8904 34.5313 62.2793 35.0413 62.6448 35.3069C63.0443 35.6171 63.4417 35.9274 63.8518 36.193C64.5934 36.6478 65.4243 36.9134 66.1532 37.366C66.5633 37.6316 66.9841 37.9738 67.3921 38.2521C67.6024 38.3966 67.7342 38.6516 67.9998 38.7388V38.6835C67.8659 38.5178 67.8341 38.2734 67.7002 38.0758C67.5111 37.8866 67.3241 37.7209 67.1349 37.5339C66.5808 36.7981 65.9163 36.1523 65.1651 35.6193C64.5573 35.2091 63.2292 34.6333 62.9848 33.9363L62.9508 33.8916C63.3609 33.8576 63.8476 33.7025 64.2449 33.592C64.8867 33.4263 65.4838 33.4581 66.1489 33.2924C66.4541 33.2132 66.7567 33.1246 67.0563 33.0268V32.861C66.7142 32.5189 66.4592 32.0535 66.1043 31.7326C65.1264 30.877 64.0827 30.0996 62.9827 29.4079C62.3856 29.0211 61.6333 28.7768 61.0022 28.4559C60.7812 28.3454 60.3945 28.2901 60.2712 28.101C59.9291 27.6803 59.7293 27.1384 59.4849 26.639C58.9291 25.5587 58.4124 24.4586 57.9358 23.341C57.5937 22.5994 57.394 21.8684 56.9732 21.182C55.0246 17.9605 52.8996 16.014 49.6462 14.0994C48.9492 13.6999 48.1077 13.5341 47.2216 13.3238C46.7456 13.3025 46.2802 13.2685 45.8042 13.2473C45.4939 13.1134 45.1964 12.7606 44.9308 12.5821C43.8471 11.8958 41.0569 10.4231 40.2707 12.3718C39.7607 13.6106 41.0229 14.8176 41.4671 15.4381C41.7879 15.8801 42.1981 16.3689 42.4297 16.8555C42.5636 17.187 42.5954 17.5313 42.7293 17.8734C43.0289 18.7043 43.3158 19.6329 43.7153 20.4085C43.9257 20.808 44.1467 21.2266 44.4123 21.5815C44.5674 21.7919 44.8331 21.8811 44.8883 22.2233C44.6227 22.61 44.6014 23.1753 44.4569 23.6406C43.7706 25.7869 44.0362 28.4325 44.9988 30.0156C45.3091 30.4916 46.0273 31.5329 46.9921 31.1334C47.8442 30.7913 47.6572 29.716 47.8994 28.764C47.9547 28.5324 47.9207 28.3879 48.0333 28.2328V28.2774C48.3096 28.8086 48.5752 29.3186 48.8196 29.8499C49.3955 30.7806 50.4239 31.7433 51.2761 32.385C51.7308 32.7271 52.0836 33.3158 52.6488 33.524V33.4688H52.6042C52.4831 33.303 52.3279 33.2244 52.1728 33.0926C51.814 32.7371 51.4809 32.3565 51.1762 31.9536C50.3899 30.8911 49.6823 29.7181 49.0618 28.5111C48.7629 27.9148 48.4899 27.3057 48.2437 26.6858C48.1332 26.4648 48.1332 26.1205 47.9441 26.01C47.6572 26.4201 47.2365 26.7729 47.0367 27.2935C46.6712 28.101 46.6372 29.1083 46.4948 30.1495C46.4289 30.1708 46.4608 30.1495 46.429 30.1941C45.8212 30.039 45.6108 29.4185 45.3877 28.8873C44.8118 27.5379 44.7226 25.3789 45.2113 23.8298C45.3452 23.4303 45.9083 22.1808 45.6873 21.8046C45.5662 21.4391 45.1901 21.2288 44.9903 20.9419C44.7353 20.587 44.4803 20.1344 44.304 19.7349C43.8492 18.6724 43.6282 17.4994 43.131 16.4369C42.91 15.9503 42.5104 15.4403 42.1896 14.9876C41.8241 14.4776 41.4267 14.1143 41.1483 13.515C41.0485 13.3046 40.9167 12.9625 41.0718 12.7394C41.1058 12.5843 41.1823 12.529 41.3374 12.4844C41.5818 12.274 42.2895 12.5396 42.5338 12.6608C43.2308 12.937 43.8173 13.2026 44.4038 13.6021C44.6694 13.7913 44.9563 14.144 45.3006 14.2439H45.7001C46.3078 14.3778 46.9836 14.2779 47.5488 14.4543C48.5561 14.7751 49.4635 15.2405 50.2816 15.7484C52.7835 17.3544 54.8181 19.5914 56.1806 22.2339C56.4122 22.6653 56.5121 23.0648 56.7225 23.5174C57.1092 24.4588 57.6086 25.398 58.006 26.2948C58.4033 27.1915 58.7816 28.0989 59.3553 28.8405C59.6422 29.24 60.7727 29.4483 61.2912 29.648C61.6673 29.8244 62.2538 29.9795 62.5853 30.1793C63.2377 30.5788 63.8794 31.0314 64.4893 31.4734C64.7996 31.6838 65.7409 32.1598 65.7962 32.5359L65.7983 32.5401Z" fill="#333333"/>
</svg>
