<svg width="56" height="60" viewBox="0 0 56 60" fill="none" xmlns="http://www.w3.org/2000/svg">
<path d="M9.80996 6.2625C9.80996 6.2625 9.60996 6.58 9.79996 7.05C9.91496 7.34 10.265 7.69 10.65 8.06C10.65 8.06 14.6875 12 15.1825 12.57C17.42 15.1525 18.3925 17.695 18.4825 21.2025C18.5375 23.4525 18.105 25.4325 17.05 27.735C15.16 31.8575 11.175 36.405 5.02496 41.46L5.92496 41.16C6.50746 40.7275 7.29496 40.2625 9.15496 39.245C13.4375 36.905 18.245 34.75 24.1525 32.53C32.65 29.3375 46.6275 25.59 54.5825 24.3725L55.41 24.245L55.285 24.045C54.555 22.915 54.06 22.2175 53.46 21.4775C51.7175 19.32 49.605 17.56 47.0175 16.1125C43.4625 14.12 38.85 12.5725 33.0175 11.4125C31.1969 11.0701 29.3708 10.7576 27.54 10.475C24.265 9.97274 20.9948 9.43938 17.73 8.875C16.6675 8.6875 15.08 8.4225 14.0275 8.195C13.2158 8.02255 12.4138 7.80725 11.625 7.55C10.955 7.2875 10.0125 7.0325 9.80996 6.2625V6.2625ZM12.15 8.535C12.1575 8.53 12.3075 8.5775 12.4925 8.64C12.8325 8.755 13.2825 8.89 13.8075 9.0375C14.1725 9.1375 14.575 9.2475 15.005 9.355C15.55 9.495 16.0025 9.615 16.0075 9.6225C16.0675 9.69 16.985 12.6175 17.2975 13.74C17.4175 14.17 17.5075 14.5275 17.5 14.535C17.4128 14.4266 17.3374 14.3093 17.275 14.185C16.215 12.32 14.5325 10.4225 12.59 8.895C12.4389 8.78041 12.2922 8.66033 12.15 8.535V8.535ZM16.625 9.77C16.7894 9.78571 16.9524 9.81412 17.1125 9.855C18.66 10.195 21.425 10.73 23.2 11.03C23.4975 11.08 23.74 11.13 23.74 11.1475C23.6675 11.2125 23.5847 11.2649 23.495 11.3025C23.1975 11.4525 21.99 12.175 21.5875 12.445C20.668 13.0488 19.8061 13.7359 19.0125 14.4975C18.8524 14.6617 18.6882 14.8217 18.52 14.9775C18.477 14.8661 18.4428 14.7516 18.4175 14.635C17.9929 13.1123 17.4496 11.6252 16.7925 10.1875C16.7265 10.053 16.6672 9.91537 16.615 9.775C16.615 9.7725 16.615 9.77 16.625 9.77V9.77ZM24.4925 11.265C24.5425 11.2825 24.6425 11.59 24.815 12.275C25.2134 13.8902 25.3426 15.5602 25.1975 17.2175L25.1675 17.3125L24.7 17.1625C23.405 16.7568 22.1031 16.3734 20.795 16.0125C20.3223 15.8915 19.8551 15.7497 19.395 15.5875C19.395 15.5325 20.5175 14.41 21 13.9825C21.9225 13.1675 24.405 11.2375 24.4925 11.265V11.265ZM25.1175 11.355C25.145 11.33 28.8775 11.975 30.5725 12.3C31.8375 12.5425 33.665 12.925 33.775 12.9725C33.83 12.9925 33.64 13.0975 33.0325 13.3725C30.6325 14.4525 28.8525 15.4225 27.0825 16.605C26.6175 16.915 26.23 17.17 26.2225 17.17C26.2125 17.17 26.2075 16.91 26.2075 16.595C26.2075 14.87 25.86 13.1275 25.23 11.655C25.1832 11.5587 25.1455 11.4583 25.1175 11.355ZM34.7675 13.265C34.795 13.2925 34.6725 14.03 34.5675 14.465C34.2375 15.815 33.3625 17.825 32.2825 19.7125C32.169 19.9254 32.0421 20.1308 31.9025 20.3275C31.7123 20.2469 31.5292 20.1507 31.355 20.04C30.3 19.4225 29.105 18.84 27.7925 18.2975C27.5576 18.2052 27.3258 18.1051 27.0975 17.9975C27.0375 17.9425 29.955 16.01 31.5025 15.0825C32.74 14.34 34.7325 13.23 34.7675 13.265V13.265ZM35.4575 13.3725C35.54 13.3725 37.195 13.8225 38.05 14.08C40.1825 14.7175 42.6425 15.615 44.2375 16.34L44.9 16.64L44.4325 16.7475C40.53 17.6475 37.1825 18.68 33.9625 19.9875C33.695 20.0975 33.4625 20.1875 33.445 20.1875C33.4903 20.0269 33.5532 19.8718 33.6325 19.725C34.6025 17.6675 35.2275 15.5075 35.39 13.675C35.405 13.5075 35.435 13.3725 35.4575 13.3725V13.3725ZM19.0075 17.1525C19.0325 17.1275 20.2925 17.4225 20.98 17.615C22.0125 17.905 24.21 18.64 24.21 18.6975C24.21 18.7075 23.9675 18.92 23.6725 19.1675C22.3959 20.2408 21.1592 21.3608 19.965 22.525C19.7179 22.7726 19.461 23.0103 19.195 23.2375C19.1775 23.2375 19.17 23.18 19.18 23.1125C19.3875 21.585 19.3425 19.625 19.055 17.63C19.0266 17.4731 19.0099 17.3144 19.005 17.155L19.0075 17.1525ZM45.5325 17.1775C45.55 17.1975 44.9475 18.14 44.5725 18.6775C44.0225 19.4625 43.23 20.4925 41.42 22.77L39.035 25.775C38.8171 26.0576 38.5929 26.3351 38.3625 26.6075C38.355 26.6075 38.2375 26.4425 38.105 26.2425C37.0831 24.7176 35.8452 23.3491 34.43 22.18C34.2083 21.9943 33.9832 21.8126 33.755 21.635C33.6875 21.5897 33.6254 21.5369 33.57 21.4775C33.57 21.4525 35.1125 20.7925 36.29 20.3125C38.5712 19.3956 40.888 18.5699 43.235 17.8375C44.34 17.5 45.515 17.1625 45.5325 17.1775V17.1775ZM46.2275 17.36C46.4096 17.4216 46.5835 17.5056 46.745 17.61C48.9493 18.8729 50.9882 20.4046 52.815 22.17C53.3 22.645 54.4825 23.8775 54.465 23.8875L53.5575 23.96C49.7325 24.2475 44.8425 25.06 40.1325 26.1925C39.8125 26.2675 39.5375 26.3325 39.5175 26.3325C39.5 26.3325 39.85 25.9825 40.295 25.5525C43.0625 22.895 44.3225 21.2175 45.8075 18.2175C46.0275 17.7725 46.215 17.385 46.2225 17.3625H46.2275V17.36ZM26.0075 19.435C26.135 19.46 27.315 20.01 28.205 20.455C29.0175 20.8625 30.25 21.52 30.3125 21.5775C30.32 21.585 29.8875 21.81 29.3475 22.08C27.7455 22.8754 26.179 23.7404 24.6525 24.6725C24.215 24.94 23.8525 25.1575 23.84 25.1575C23.8025 25.1575 23.815 25.125 24.06 24.68C24.9042 23.1053 25.5251 21.4209 25.905 19.675C25.94 19.52 25.98 19.425 26.0075 19.4325V19.435ZM24.82 19.645C24.845 19.67 24.54 20.795 24.345 21.395C23.8167 22.9736 23.1167 24.4893 22.2575 25.915L22.0325 26.2825L21.525 25.79C21.0311 25.2867 20.4608 24.8648 19.835 24.54C19.6801 24.47 19.5327 24.3846 19.395 24.285C19.395 24.21 20.945 22.8025 22.14 21.79C22.9975 21.065 24.8 19.6225 24.82 19.645V19.645ZM32.04 22.615L32.4825 22.9025C33.5 23.5625 34.7025 24.45 35.62 25.2125C36.135 25.6425 37.1325 26.5375 37.3375 26.7525L37.4475 26.87L36.7125 27.075C32.9543 28.1 29.2425 29.2878 25.5875 30.635C25.3236 30.7361 25.0568 30.8295 24.7875 30.915C24.735 30.915 24.6825 30.9625 25.62 30.1C28.02 27.8925 30.1375 25.46 31.72 23.095L32.04 22.615ZM30.1425 23.09C30.165 23.1125 28.9125 24.865 28.17 25.855C27.28 27.0375 25.695 29.0175 24.605 30.305C24.3266 30.6444 24.0382 30.9754 23.74 31.2975C23.715 31.305 23.7025 31.1725 23.7 30.965C23.7 29.865 23.42 28.69 22.93 27.695C22.7225 27.275 22.6875 27.175 22.73 27.135C22.9 26.98 25.5475 25.47 27.215 24.5775C28.3625 23.9625 30.1225 23.0675 30.1425 23.09ZM18.6675 25.9025C19.394 26.2506 20.0756 26.6854 20.6975 27.1975C20.7175 27.21 20.48 27.405 20.1725 27.6275C19.31 28.25 17.9975 29.2375 17.24 29.8425C16.44 30.48 16.4125 30.5 16.5025 30.36C17.1025 29.4425 17.4025 28.925 17.7175 28.26C18 27.67 18.2775 26.97 18.4775 26.36C18.5187 26.1988 18.5836 26.0447 18.67 25.9025H18.6675ZM21.725 28.3025C21.7675 28.295 21.825 28.3725 22.0725 28.74C22.59 29.515 22.9875 30.545 23.09 31.385L23.11 31.5675L21.8675 32.0475C19.9589 32.7811 18.0699 33.5647 16.2025 34.3975C15.815 34.5775 15.1325 34.9025 14.685 35.1275C14.2375 35.3525 13.8725 35.5275 13.8725 35.5175C13.8725 35.5075 14.1525 35.295 14.4975 35.0475C17.215 33.0725 19.56 30.9125 21.3275 28.75C21.515 28.52 21.6875 28.32 21.71 28.305C21.7146 28.3023 21.7197 28.3006 21.725 28.3V28.3025ZM20.315 28.6525C20.3525 28.6875 19.3125 29.8625 18.6125 30.5775C16.9214 32.3152 15.0278 33.8436 12.9725 35.13C12.7025 35.3025 12.4575 35.455 12.4225 35.475C12.365 35.51 12.4425 35.42 13.3875 34.39C13.9825 33.7425 14.4375 33.205 14.9575 32.5325C15.1972 32.1856 15.5051 31.8913 15.8625 31.6675C17.205 30.6975 20.28 28.615 20.315 28.65V28.6525ZM22.8125 -2.12619e-07C22.6125 -0.0250002 19.385 1.1375 17.3125 1.9775C14.505 3.12 12.3225 4.2125 10.9775 5.1575C10.4775 5.5075 9.84746 6.14 9.75746 6.3825C9.72199 6.48111 9.70422 6.58521 9.70496 6.69L10.925 7.84L13.82 8.765L20.7175 10L28.6 11.355L28.68 10.68L28.61 10.6675L27.5725 10.5025L27.36 10.1325C26.2885 8.24223 25.3066 6.30259 24.4175 4.32C23.8986 3.12848 23.4561 1.90518 23.0925 0.6575C22.9225 0.0499998 22.905 0.0124998 22.8125 -2.12619e-07ZM22.66 0.465H22.6725C22.68 0.4725 22.715 0.7275 22.7525 1.0275C22.9075 2.2975 23.1925 3.5275 23.6375 4.8525C23.9725 5.8525 23.9775 5.795 23.5775 5.6825C22.6525 5.425 18.4975 4.7125 15.4925 4.295C15.1941 4.25694 14.8965 4.21277 14.6 4.1625C14.5625 4.125 16.7675 2.97 17.745 2.5125C18.9975 1.9325 22.4125 0.5125 22.66 0.465V0.465ZM13.905 4.535L14.2575 4.655C16.1875 5.31 21.0225 6.235 23.695 6.455C23.995 6.48 24.25 6.5075 24.2575 6.515C24.265 6.5225 24.0075 6.66 23.6875 6.82C22.4 7.465 20.98 8.2525 19.9975 8.8675C19.71 9.0475 19.4475 9.1925 19.41 9.19C19.2679 9.17001 19.1262 9.1475 18.985 9.1225L18.625 9.065L17.7125 8.1775C16.11 6.6275 14.86 5.4275 14.375 4.9775L13.905 4.535ZM13.5475 4.82L14.825 6.415C15.53 7.29 16.235 8.1625 16.39 8.35C16.5475 8.5375 16.6675 8.695 16.66 8.7C16.625 8.7275 14.81 8.375 13.8475 8.1525C13.1701 8.00852 12.5001 7.83165 11.84 7.6225L11.34 7.4625L11.3425 7.34C11.35 6.7275 12.1225 5.8225 13.4325 4.9L13.5475 4.82ZM24.4275 6.9925C24.465 6.995 24.5075 7.0725 24.62 7.32C24.93 8 25.895 9.84 26.1275 10.195C26.2025 10.3125 26.3275 10.32 25.045 10.1125C21.97 9.6175 20.9725 9.45 20.9725 9.43C21.0351 9.37566 21.1049 9.33023 21.18 9.295C22.1609 8.74458 23.0875 8.10255 23.9475 7.3775L24.385 7.01C24.4 6.9975 24.415 6.99 24.4275 6.9925V6.9925ZM35.2 28.0125L23.18 31.9325L12.73 36.5475L9.80496 37.3225C8.25505 38.7879 6.64709 40.1907 4.98496 41.5275C4.12142 42.2418 3.32403 43.0325 2.60246 43.89C1.77246 44.925 1.12246 46.025 0.842456 46.8725C0.342456 48.3975 0.584956 49.9425 1.55496 51.3675C2.79246 53.1875 5.25496 55.0375 8.11746 56.2975C9.57996 56.9375 12.0425 57.7675 13.8925 58.2325C16.975 59.0125 22.9275 59.8575 26.2075 59.9825C26.8725 60.0075 27.7575 60.0075 27.8 59.9775C27.87 59.93 28.3825 58.965 28.975 57.7525C30.99 53.6375 32.4475 49.7775 33.2325 46.4825C33.7075 44.485 34.0775 41.825 34.3175 38.67C34.3913 37.0594 34.4046 35.4466 34.3575 33.835C34.2951 32.4051 34.1423 30.9806 33.9 29.57C33.8682 29.4477 33.8581 29.3208 33.87 29.195C33.905 29.17 34.0175 29.1325 35.495 28.7025L35.2 28.0125ZM32.45 29.625C32.5625 29.625 32.85 32.41 32.9275 34.175C32.9425 34.5525 32.94 34.7925 32.9175 34.7925C32.8475 34.7925 31.38 33.93 30.3375 33.2775C29.3536 32.6578 28.385 32.0143 27.4325 31.3475C27.345 31.2775 27.355 31.275 28.0975 31.02C29.36 30.585 32.3575 29.625 32.4525 29.625H32.45ZM26.33 31.6325C26.405 31.6325 26.6175 31.75 27.1175 32.0625C28.9925 33.2375 31.5325 34.65 32.6175 35.125C32.9575 35.275 32.995 35.215 32.2175 35.7425C30.5625 36.8675 28.5025 37.9725 25.975 39.0975C25.702 39.2224 25.4261 39.3407 25.1475 39.4525C25.1659 39.2826 25.2019 39.115 25.255 38.9525C25.8675 36.69 26.2125 34.4025 26.2225 32.5675C26.2275 31.6625 26.2275 31.6575 26.315 31.635H26.33V31.6325ZM25.07 32.115C25.1225 32.17 25.085 34.2 25.02 34.755C24.8296 36.3175 24.4794 37.8564 23.975 39.3475C23.94 39.39 22.6975 38.1775 22.285 37.6975C21.6318 36.9568 21.0702 36.1401 20.6125 35.265C20.4075 34.86 20.0775 34.055 20.1075 34.0325C20.2475 33.9325 25.035 32.0825 25.07 32.115ZM19.1325 34.455C19.1425 34.455 19.1525 34.4575 19.1575 34.465C19.2129 34.5702 19.2597 34.6797 19.2975 34.7925C19.6831 35.7524 20.1888 36.6597 20.8025 37.4925C21.5428 38.4727 22.3962 39.3622 23.345 40.1425C23.4025 40.1925 23.42 40.1825 21.94 40.7425C20.0453 41.4569 18.133 42.1238 16.205 42.7425C15.3875 43.0075 14.695 43.23 14.6675 43.2425C14.585 43.27 14.61 43.22 14.85 42.8475C15.9175 41.1825 17.5325 37.9225 18.4375 35.6175C18.5925 35.2175 18.7425 34.8175 18.77 34.7275C18.8075 34.5975 18.8475 34.5525 18.97 34.4975C19.0202 34.4711 19.0758 34.4566 19.1325 34.455V34.455ZM17.3125 35.205C17.3375 35.2275 16.8775 36.2 16.4225 37.0825C15.458 38.9479 14.4128 40.7704 13.29 42.545L12.835 43.265C12.79 43.3325 12.77 43.31 12.63 43.03C12.3031 42.363 12.0677 41.6549 11.93 40.925C11.8014 40.0257 11.8183 39.1115 11.98 38.2175C12.0975 37.65 12.0925 37.6625 12.36 37.5275C13.515 36.935 17.275 35.1725 17.3125 35.205V35.205ZM32.9825 35.8425V36.2275C32.9567 38.7332 32.7436 41.2335 32.345 43.7075C30.6964 43.2317 29.1052 42.5761 27.6 41.7525C26.715 41.2675 25.4375 40.485 25.475 40.4475C25.4825 40.4375 25.86 40.24 26.31 40.005C28.095 39.08 29.7975 38.08 31.28 37.09C31.835 36.72 32.6675 36.1175 32.8525 35.955L32.9825 35.8425ZM10.4525 38.525C10.49 38.525 10.48 38.595 10.4225 38.9275C10.3729 39.2507 10.3387 39.5761 10.32 39.9025C10.245 41.2325 10.4625 42.2125 11.12 43.5525C11.305 43.9275 11.45 44.2375 11.4425 44.2425C11.375 44.3 5.36746 46.0575 3.47746 46.575L2.38996 46.875C2.32246 46.895 2.31746 46.88 2.33996 46.725C2.54746 45.3925 3.56496 43.645 4.98496 42.175C5.92996 41.2 6.68496 40.62 7.97246 39.8875C8.7907 39.4182 9.61751 38.9639 10.4525 38.525V38.525ZM24.625 41.0625C24.63 41.0575 24.8525 41.175 25.1175 41.33C27.06 42.4525 29.7675 43.505 32.075 44.0325L32.285 44.0825L31.9975 44.24C30.7925 44.91 26.82 46.5625 22.7625 48.0825C22.3343 48.2425 21.9068 48.4041 21.48 48.5675C21.4151 48.5993 21.3461 48.622 21.275 48.635C21.275 48.625 21.4425 48.305 21.6475 47.92C22.7875 45.79 23.9225 43.2025 24.5075 41.4075C24.565 41.225 24.6175 41.07 24.625 41.0625V41.0625ZM23.18 41.5375C23.1367 41.6816 23.084 41.8227 23.0225 41.96C22.1002 44.1381 21.0475 46.2586 19.87 48.31C19.67 48.6766 19.46 49.0376 19.24 49.3925C19.2275 49.3925 18.955 49.2275 18.63 49.03C16.705 47.85 15 46.4 13.88 44.9875L13.72 44.7875L14.55 44.56C17.2707 43.8322 19.9358 42.9107 22.525 41.8025C22.88 41.6525 23.175 41.53 23.18 41.5375V41.5375ZM32.155 44.67C32.1575 44.67 32.16 44.6725 32.16 44.6775C32.16 44.8775 31.7025 46.7475 31.32 48.1025C31 49.235 30.73 50.1225 30.2325 51.695C30.1056 52.1193 29.9655 52.5395 29.8125 52.955C27.2463 52.5163 24.7327 51.8117 22.3125 50.8525C21.7699 50.6401 21.2368 50.4041 20.715 50.145C20.7 50.1275 21.2475 49.87 21.93 49.57C26.0675 47.7675 30.3525 45.7125 31.8175 44.83C31.9198 44.7575 32.034 44.7033 32.155 44.67V44.67ZM11.4375 45.3775C11.46 45.4 10.3025 47.055 8.68746 49.3175L7.21996 51.375C6.97746 51.7225 6.60746 52.27 6.39746 52.595L6.01496 53.185L5.60996 52.8425C5.00362 52.3104 4.43787 51.7338 3.91746 51.1175C3.13746 50.145 2.60996 49.1225 2.39996 48.1825C2.30496 47.7475 2.29996 47.5275 2.39246 47.5C4.00197 47.1117 5.61367 46.7326 7.22746 46.3625L10.4775 45.6C11 45.475 11.4325 45.375 11.4375 45.3775V45.3775ZM12.6 45.8225L12.8925 46.15C14.1141 47.537 15.5549 48.7143 17.1575 49.635C17.3322 49.7217 17.4959 49.8292 17.645 49.955C14.0471 51.2594 10.4386 52.5344 6.81996 53.78C6.75798 53.743 6.6979 53.703 6.63996 53.66L6.47246 53.54L6.73496 53.16C7.58496 51.9275 8.65496 50.5725 10.9975 47.755L12.6 45.8225ZM19.85 51.005C19.8575 50.9975 20.2625 51.14 20.755 51.325C21.9375 51.7675 22.865 52.055 24.1225 52.37C25.665 52.7575 27.8975 53.145 29.2175 53.255C29.4175 53.27 29.5225 53.295 29.4925 53.315C29.43 53.355 28.0925 53.8 27.11 54.11C23.2573 55.2819 19.3938 56.4178 15.52 57.5175C15.4325 57.535 15.1275 57.455 15.1275 57.4175C15.1275 57.395 15.345 57.12 15.61 56.8025C16.9319 55.2196 18.1638 53.5636 19.3 51.8425C19.4823 51.5627 19.6656 51.2835 19.85 51.005V51.005ZM18.245 51.05C18.2575 51.0625 17.6125 52.095 16.48 53.88C16 54.6325 15.4575 55.4925 15.2725 55.785C15.085 56.08 14.8125 56.53 14.6675 56.785L14.4 57.2475L14.265 57.2125C13.94 57.125 11.6425 56.3125 11.0375 56.0725C10.3153 55.787 9.60925 55.4624 8.92246 55.1C8.19996 54.71 7.28496 54.13 7.35496 54.1075L10.1175 53.3525C14.0975 52.2675 16.3 51.645 17.7425 51.1925C18.015 51.11 18.24 51.045 18.2425 51.05H18.245ZM29.5525 53.7025H29.5675C29.605 53.7975 28.13 57.8775 27.5925 59.1725C27.47 59.4625 27.4275 59.535 27.3625 59.53C26.1662 59.3789 24.9719 59.2122 23.78 59.03C21.515 58.685 17.7225 58.0225 16.765 57.805L16.5425 57.755L17.9 57.45C20.81 56.795 22.2075 56.4425 23.625 56.0075C25.4521 55.4452 27.238 54.7569 28.97 53.9475C29.1595 53.8552 29.3539 53.7734 29.5525 53.7025V53.7025Z" fill="#333333"/>
</svg>
