<svg width="69" height="69" viewBox="0 0 69 69" fill="none" xmlns="http://www.w3.org/2000/svg">
<path d="M50.008 6.99056H12.1248C10.9015 6.99398 9.72925 7.48146 8.86422 8.34648C7.99919 9.21151 7.51171 10.3838 7.5083 11.6071V53.3866C7.51171 54.6099 7.99919 55.7822 8.86422 56.6472C9.72925 57.5122 10.9015 57.9997 12.1248 58.0031H37.077C36.7923 45.5874 41.0337 21.4935 50.008 6.99056Z" fill="#0F80CC"/>
<path d="M48.6323 8.33822H12.1248C11.2582 8.33936 10.4274 8.68412 9.81465 9.29691C9.20186 9.9097 8.8571 10.7405 8.85596 11.6071V50.3377C18.2219 46.8052 28.1086 44.8496 38.1141 44.5503C40.7605 32.2463 44.2753 20.1453 48.6323 8.33822Z" fill="url(#paint0_linear_160_200)"/>
<path d="M58.8441 5.6235C56.2566 3.30984 53.1084 4.23919 50.0034 6.99056C49.5442 7.40025 49.0849 7.85306 48.6278 8.33822C42.7867 15.2464 38.7478 23.4938 36.8719 32.3437C37.4509 33.6071 37.9087 34.9225 38.2389 36.2724C38.3166 36.5743 38.3877 36.8589 38.4546 37.1004C38.5883 37.6718 38.6702 38.0427 38.6702 38.0427C38.6702 38.0427 38.6228 37.8637 38.4265 37.2967L38.2993 36.9301C38.2737 36.8619 38.2463 36.7943 38.2174 36.7274C37.8724 35.9231 36.9236 34.2262 36.4924 33.493C36.1323 34.5561 35.8132 35.5501 35.5479 36.4492C36.4432 38.3748 37.1007 40.4022 37.5058 42.4867C37.5058 42.4867 37.4411 42.2388 37.1371 41.3763C36.5529 40.1166 35.9052 38.8874 35.1965 37.6934C34.7381 38.8762 34.5438 40.145 34.6272 41.4108C35.1021 42.3576 35.4591 43.3591 35.6903 44.3929C36.4104 47.1593 36.9107 50.5296 36.9107 50.5296L36.9538 51.0966C36.8591 53.4009 36.9059 55.7089 37.094 58.0074C37.2009 60.2833 37.6247 62.5331 38.3532 64.6918L38.7413 64.4762C37.8379 61.2317 37.4894 57.8577 37.7107 54.4971C38.1166 47.3722 39.5233 40.34 41.8895 33.6073C46.2235 22.1619 52.2395 12.9763 57.7379 8.59481C52.7225 13.1229 45.9346 27.7854 43.9013 33.2149C41.7601 38.8051 40.1333 44.5791 39.0411 50.4649C40.341 47.1801 42.8861 44.5419 46.1222 43.125C46.1222 43.125 48.7808 39.8453 51.888 35.162C49.8806 35.5806 47.8975 36.1083 45.9475 36.7425C44.4382 37.3764 44.0306 37.5921 44.0306 37.5921C46.9119 35.8569 49.9559 34.4074 53.1192 33.2645C58.8893 24.1759 65.177 11.2707 58.8462 5.61272" fill="#003B57"/>
<defs>
<linearGradient id="paint0_linear_160_200" x1="28.6979" y1="9.28579" x2="28.6979" y2="48.0952" gradientUnits="userSpaceOnUse">
<stop stop-color="#97D9F6"/>
<stop offset="0.92" stop-color="#0F80CC"/>
<stop offset="1" stop-color="#0F80CC"/>
</linearGradient>
</defs>
</svg>
